Patient4_TMGait_0pt6_01_right_44_EMG.mot
version=1
nRows=29
nColumns=33
inDegrees=no
endheader
time	1LAddLong	2LGlutMax	3LGlutMed	4LIliopsoas	5LSemiMemb	6LBicFemLong	7LRecFem	8LVastMed	9LVastLat	10LGasMed	11LTibAnt	12lTibPost	13LPeroneusLong	14LSol	15LExtDigLong	16LFlexDigLong	17RAddLong	18RGlutMax	19RGlutMed	20RIliopsoas	21RSemiMemb	22RBicFemLong	23RRecFem	24RVastMed	25RVastLat	26RGasMed	27RTibAnt	28RTibPost	29RPeroneusLong	30RSol	31RExtDigLong	32RFlexDigLong
54.173	0.001678	-0.00885	0.1178	0.030975	0.061798	0.069275	0.28534	0.055237	-0.10864	-0.036163	-0.004272	-0.002289	-0.084076	-0.23895	-0.023651	0.02243	-0.032501	-0.021057	0.45944	-0.052948	0.13153	0.019531	-0.029755	-0.015717	0.013275	-0.002747	-0.13718	-0.002594	0.18692	-0.053864	0.000153	0.011597
54.174	0.004883	-0.032501	-0.055389	0.048065	0.048065	0.013885	0.15686	0.022736	-0.080566	-0.001831	-0.005188	0.006104	0.062256	-0.18631	0.009766	0.011292	-0.022278	-0.014496	0.5983	-0.13763	0.17258	-0.010529	-0.044861	0.032043	0.03006	-0.002441	-0.096283	-0.001678	-0.11429	-0.03952	-0.00061	-0.001678
54.175	0.006409	0.001984	-0.041046	-0.013428	0.027924	0.004425	0.050964	0.024109	0.017548	-0.016632	-0.014801	0.01236	0.13657	-0.19989	0.043945	-0.005798	-0.029144	-0.039978	0.53268	-0.080872	0.13489	-0.067902	-0.028839	-0.017548	0.012054	-0.011139	-0.063629	-0.002441	-0.45441	0.071716	-0.003662	-0.002136
54.176	0.010223	0.018005	-0.009766	-0.00061	0.02182	-0.002136	0.024719	0.020752	0.1033	0.047302	0.023651	0.011139	0.10391	-0.11063	0.055542	-0.023956	-0.023193	-0.035248	0.27893	0.014343	0.052948	-0.037689	0.012817	-0.037537	-0.005951	-0.00412	-0.04776	-0.002441	-0.53421	0.080261	-0.003357	-0.006714
54.177	0.027771	0.046844	-0.02533	-0.021667	-0.011139	-0.012054	-0.20447	0.028992	0.24277	0.19287	0.002441	0.012665	0.21606	-0.1535	0.031433	-0.005493	-0.020447	-0.01297	0.12085	0.003967	-0.067291	0.048523	0.016174	-0.072479	-0.005188	0.006866	0.15045	-0.002747	-0.27176	-0.038147	-0.005798	-0.00824
54.178	0.047302	0.035095	-0.058289	-0.013428	0.049286	-0.061493	-0.25833	-0.001068	0.40146	0.27634	-0.01709	0.029602	0.31387	-0.16098	0.018463	0.004425	-0.042572	-0.048218	0.30365	-0.050964	-0.011444	0.024261	0.018616	0.007477	-0.009918	-0.008392	0.15945	0	-0.1564	-0.095367	0.001068	-0.011749
54.179	0.032501	0.045319	-0.056458	0.013733	0.095978	-0.055847	-0.15289	0.003967	0.30304	0.24155	-0.035248	0.014801	0.14648	-0.042419	0.027618	0.014343	-0.036011	-0.02594	0.33875	-0.010834	0.022736	-0.013428	0.079956	0.066986	-0.02182	-0.00946	0.058289	-0.000916	-0.13473	-0.072174	0.000458	-0.007782
54.18	0.023499	0.047913	-0.1387	0.019836	0.049744	0.016022	-0.095215	-0.001678	0.22492	0.1355	-0.034485	0.004272	-0.14175	-0.028687	0.045166	0.007477	-0.004425	-0.052948	-0.082245	0.026855	-0.037537	-0.05127	0.14801	0.007172	-0.034485	-0.010376	0.10117	-0.008087	-0.063171	-0.007324	-0.001678	-0.012054
54.181	0.010681	0.079041	-0.16007	0.003204	0.048065	0.040436	0.014954	-0.002441	0.20844	0.080109	0.008087	0.009003	-0.005188	-0.31052	0.05722	0.007324	0.01709	-0.070343	-0.034637	0.009918	-0.046387	-0.069275	0.1355	-0.052795	-0.034943	-0.012512	0.27908	-0.00351	0.013428	-0.029144	0.000763	-0.016327
54.182	0.007019	0.121	-0.078735	0.007935	0.045166	0.036163	0.080414	-0.00473	0.26871	0.11322	0.16235	0.005341	0.29816	-0.37018	0.072479	-0.009003	0.005341	-0.072937	0.036011	-0.008087	-0.079651	-0.069885	0.11505	-0.058289	-0.026093	-0.013733	0.25146	0.001221	-0.045471	-0.067291	0.001831	-0.018463
54.183	0.004272	0.099182	-0.10666	0.018616	0.040588	0.019073	0.14557	-0.003204	0.093994	0.001831	0.11734	0.019989	0.29221	-0.20432	0.074158	0.002899	0.006409	-0.022278	0.10101	0.065155	0.004272	-0.073853	0.062866	-0.053406	-0.007782	-0.006714	0.15335	-0.00824	-0.14618	-0.075226	0.012817	-0.012817
54.184	-0.002136	0.081024	0.12543	0.038452	0.039825	0.044708	0.19867	-0.010376	-0.065155	-0.11917	0.03891	0.034485	-0.51331	0.06546	0.070801	0.030975	-0.014191	-0.040131	0.29663	0.03891	0.041504	-0.10407	0.039368	-0.041656	-0.018768	-0.007935	0.14999	-0.010071	-0.29022	-0.048523	0.005188	-0.01297
54.185	0.006104	0.071564	0.067291	0.034637	0.037994	0.020752	0.19775	-0.005951	-0.28778	-0.087585	0.041809	0.028687	-0.41229	0.075073	-0.059357	0.03418	0.026245	-0.035858	0.2948	0.02182	-0.071716	-0.1358	0.045776	-0.09613	-0.007324	-0.011139	0.11704	-0.00824	-0.052185	-0.038757	0.002441	-0.011444
54.186	-0.008545	-0.009918	0.031128	0.018463	0.025024	0.023041	0.19348	0.010681	-0.28107	-0.098724	0.028381	0.026093	0.40115	0.056305	-0.11734	-0.002899	0.033417	-0.079803	0.045319	0.093384	-0.045471	-0.12375	0.023193	-0.054016	-0.017548	0.005646	-0.026855	-0.007019	0.26321	-0.058289	0.006714	-0.006561
54.187	0.004578	-0.005188	-0.034637	0.006866	0.028992	-0.003662	0.13031	0.010986	-0.20218	-0.097198	0.005341	0.021362	0.55878	0.31815	0.035095	-0.008392	0.032654	-0.052185	-0.067902	0.074463	-0.04715	-0.12085	-0.053864	-0.069122	-0.006256	0.018921	-0.19806	-0.002747	0.54443	-0.12848	0.007019	-0.006714
54.188	0.016174	-0.038605	0.021362	-0.019226	0.016937	-0.006256	0.18463	-0.002289	-0.12695	-0.05661	0.022736	0.020905	0.21683	0.31387	0.028992	-0.00351	0.040283	-0.061951	-0.17792	-0.020142	-0.001678	-0.14572	-0.08667	-0.11124	-0.019836	0.009155	-0.026093	-0.003357	0.18249	-0.13351	0.003357	-0.003815
54.189	0.012207	-0.015869	0.077057	0.006714	0.019989	0.012665	0.18021	-0.001221	-0.11719	-0.045471	-0.038605	0.027771	0.024872	0.17075	-0.002441	0.002594	0.041504	-0.10025	-0.13092	-0.042114	0.027771	-0.03479	-0.046539	-0.085449	-0.010834	0.00412	0.30365	-0.002899	-0.17822	-0.12497	0.001068	-0.003357
54.19	0.010529	-0.054016	0.088501	0.018158	0.015411	-0.017548	0.056	0.004272	-0.096741	-0.035858	-0.032043	0.029602	-0.40497	-0.007935	0.024109	0.009613	0.027466	-0.080261	-0.12558	-0.011902	-0.043793	0.15213	-0.037079	0.004883	-0.002594	0.01358	0.55985	-0.005798	0.56671	-0.074921	0.001373	-0.001678
54.191	0.000458	-0.041962	0.075073	0.005341	0.015869	-0.019989	-0.02655	0.008087	-0.015106	-0.045624	-0.00946	0.02655	-0.41351	0.12894	0.068359	0.036926	-0.006104	-0.056305	-0.18265	-0.011444	-0.1593	0.12695	-0.069733	-0.058594	0.00885	-0.002441	0.64774	-0.002136	0.63751	0.011292	-0.005035	-0.009155
54.192	0.017853	-0.037994	0.003052	-0.011139	0.063019	-0.076599	-0.012665	0.014801	0.016479	-0.029449	0.013123	0.029755	0.41092	0.20538	0.025177	0.016937	0.016479	-0.009766	-0.1178	-0.031738	-0.27741	0.048218	-0.010681	-0.067749	-0.005493	-0.013123	0.41153	-0.003815	0.23941	0.021667	0.000763	0.000458
54.193	0.009918	-0.014038	-0.070648	-0.012512	0.03479	-0.06485	0.05722	0.006714	0.016327	0.007324	0.037384	0.028381	0.46707	0.32501	-0.002441	-0.003815	0.033264	-0.003815	-0.040283	0.007935	-0.23239	0.026398	0.045624	-0.10513	-0.013428	-0.010376	0.34698	-0.001984	0.081329	-0.024719	0.001678	-0.002747
54.194	0.00824	-0.008698	-0.11398	0.009766	0.06012	0.006104	0.1236	0.005188	0.041962	0.033569	0.055542	0.035095	-0.30014	0.30151	-0.097809	-0.006866	-0.001678	0.00885	-0.090942	0.040283	-0.06012	0.16205	0.021057	-0.11917	0.008698	0.001984	-0.23666	-0.003967	-0.12955	-0.10803	0.000153	0.000763
54.195	0.012054	0.011597	-0.12299	-0.00824	0.034332	0.032043	0.11856	0.005798	0.028687	-0.002899	0.050964	0.034332	0.19073	0.17075	-0.20355	-0.010986	-0.047302	0.03952	-0.13016	0.002899	0.057678	0.19333	-0.022736	-0.075684	0.021515	0.006409	-1.0641	-0.005035	0.16754	-0.091553	0.002441	-0.007629
54.196	0.014191	0.015259	-0.056763	-0.002441	0.034485	0.028839	0.12085	0.005035	0.038147	-0.063782	0.032806	0.035248	0.014343	0.17883	-0.14954	0.002594	-0.039215	0.014191	-0.074615	-0.016937	0.10132	0.16281	-0.024109	-0.036163	0.008545	-0.003967	-0.61325	-0.004578	0.14816	-0.059357	-0.001221	-0.009308
54.197	0.020447	0.012054	-0.023956	0.027924	0.030365	-0.001068	0.11673	0.012054	0.032043	-0.080109	0.029755	0.037231	-0.42313	0.24689	-0.12116	0.003052	-0.012512	0.007629	0.10452	-0.079041	0.058899	0.069733	0.001678	-0.047455	0.002899	-0.002441	-0.3096	-0.004425	-0.069275	-0.043182	-0.000458	-0.013733
54.198	0.011597	0.002594	-0.015411	0.010223	0.035553	-0.005035	0.14481	0.013885	0.032043	-0.04303	-0.005188	0.040894	-0.34546	0.14755	-0.12863	0.00824	-0.001526	-0.024261	0.35996	-0.072784	-0.011597	0.011139	-0.050201	-0.055847	0.005951	0.005798	-0.071259	-0.002899	-0.032196	-0.071259	-0.000305	-0.019836
54.199	0.009918	0.030365	0.038605	-0.002136	0.039063	0.001221	0.15518	0.017395	0.063477	-0.045624	-0.003662	0.039978	-0.28137	0.16129	0.006256	0.003815	0.010834	-0.043335	0.52322	-0.014648	-0.049438	-0.065155	-0.11002	-0.049591	0.004425	0.005798	-0.15884	-0.002289	0.15564	-0.037231	0.000916	-0.011292
54.2	0.000153	0.033417	0.055695	-0.003662	0.019379	-0.000153	0.18494	0.005188	0.015717	-0.034332	-0.047607	0.0383	-0.28976	0.14481	0.12558	-0.001678	0.018616	-0.043793	0.33997	0.013885	-0.028381	-0.059204	-0.069275	-0.06012	0.010986	-0.006256	-0.066528	-0.006409	0.21133	0.081787	-0.001221	-0.009918
54.201	0.018463	-0.006714	-0.062714	-0.017242	-0.003967	0.029297	0.19547	0.001221	-0.053406	-0.040436	-0.005951	0.040283	-0.33936	-0.033722	0.24002	-0.013123	0.023041	-0.087738	0.067902	0.068054	-0.1294	-0.10712	-0.064087	-0.051117	0.000916	-0.010071	0.18417	-0.013733	0.16235	0.076141	-0.000153	-0.007477
